<svg xmlns="http://www.w3.org/2000/svg" width="86.201" height="63.736" viewBox="0 0 86.201 63.736"><defs><style>.a{fill:#3c3e4b;}</style></defs><g transform="translate(-791.146 -34)"><g transform="translate(4.181 10)"><path class="a" d="M10,0H21.819a10,10,0,0,1,10,10V42a0,0,0,0,1,0,0H0a0,0,0,0,1,0,0V10A10,10,0,0,1,10,0Z" transform="translate(814 45.736)"/><path class="a" d="M8.344,0c4.625-.017,8.275,3.638,8.275,9.641s-3.686,12.1-8.275,12.1S.128,15.643.128,9.641,3.719.017,8.344,0Z" transform="translate(821.152 24)"/></g><g transform="translate(-22.854 16)"><path class="a" d="M10,0h5.2a10,10,0,0,1,10,10V36a0,0,0,0,1,0,0H0a0,0,0,0,1,0,0V10A10,10,0,0,1,10,0Z" transform="translate(814 41.862)"/><path class="a" d="M5.836,0c3.213-.014,5.748,2.99,5.748,7.923s-2.56,9.94-5.748,9.94S.128,12.855.128,7.923,2.623.014,5.836,0Z" transform="translate(820.57 24)"/></g><g transform="translate(38.146 16)"><path class="a" d="M10,0h5.2a10,10,0,0,1,10,10V36a0,0,0,0,1,0,0H0a0,0,0,0,1,0,0V10A10,10,0,0,1,10,0Z" transform="translate(814 41.862)"/><path class="a" d="M5.836,0c3.213-.014,5.748,2.99,5.748,7.923s-2.56,9.94-5.748,9.94S.128,12.855.128,7.923,2.623.014,5.836,0Z" transform="translate(820.57 24)"/></g></g></svg>