<svg xmlns="http://www.w3.org/2000/svg" width="64" height="64.862" viewBox="0 0 64 64.862"><defs><style>.a{fill:#3c3e4b;}.b{fill:#b4c540;}</style></defs><g transform="translate(-1404 -34)"><g transform="translate(378)"><circle class="a" cx="32" cy="32" r="32" transform="translate(1026 34)"/></g><path class="b" d="M10,0h7.2a10,10,0,0,1,10,10V32a0,0,0,0,1,0,0H0a0,0,0,0,1,0,0V10A10,10,0,0,1,10,0Z" transform="translate(1422.146 66.862)"/><path class="b" d="M7.084,0C11-.015,14.09,3.229,14.09,8.556S10.969,19.291,7.084,19.291.128,13.883.128,8.556,3.168.015,7.084,0Z" transform="translate(1428.436 47.571)"/></g></svg>